<svg width="512" height="512" viewBox="0 0 512 512" fill="none" xmlns="http://www.w3.org/2000/svg">
<path d="M0 256C0 158.687 20.4522 87.04 53.76 53.76C87.0678 20.48 158.753 0 256 0C353.355 0 424.96 20.4172 458.24 53.76C491.52 87.1028 512 158.795 512 256C512 353.323 491.556 424.96 458.24 458.24C424.924 491.52 353.237 512 256 512C158.796 512 87.1038 491.52 53.76 458.24C20.4162 424.96 0 353.356 0 256Z" fill="url(#paint0_linear_93_25)"/>
<path d="M193.471 230.107L255.739 167.864L318.033 230.158L354.244 193.921L255.739 95.3911L157.234 193.896L193.471 230.107Z" fill="#F3BA2F"/>
<path d="M95.3906 255.708L131.602 219.471L167.839 255.708L131.602 291.919L95.3906 255.708Z" fill="#F3BA2F"/>
<path d="M193.471 281.284L255.739 343.552L318.033 281.258L354.27 317.444L255.765 415.975L157.234 317.52L193.471 281.284Z" fill="#F3BA2F"/>
<path d="M343.551 255.708L379.762 219.471L415.999 255.683L379.762 291.945L343.551 255.708Z" fill="#F3BA2F"/>
<path d="M292.475 255.683L255.731 218.914L228.56 246.085L225.42 249.2L218.988 255.632L255.731 292.35L292.475 255.708V255.683Z" fill="#F3BA2F"/>
<defs>
<linearGradient id="paint0_linear_93_25" x1="256" y1="0" x2="256" y2="512" gradientUnits="userSpaceOnUse">
<stop stop-color="#2C2C2B"/>
<stop offset="1" stop-color="#181817"/>
</linearGradient>
</defs>
</svg>
