<svg width="512" height="512" viewBox="0 0 512 512" fill="none" xmlns="http://www.w3.org/2000/svg">
<path d="M0 256C0 158.687 20.4522 87.04 53.76 53.76C87.0678 20.48 158.753 0 256 0C353.355 0 424.96 20.4172 458.24 53.76C491.52 87.1028 512 158.795 512 256C512 353.323 491.556 424.96 458.24 458.24C424.924 491.52 353.237 512 256 512C158.796 512 87.1038 491.52 53.76 458.24C20.4162 424.96 0 353.356 0 256Z" fill="url(#paint0_linear_90_25)"/>
<path fill-rule="evenodd" clip-rule="evenodd" d="M228.585 355.804C228.584 355.805 228.586 355.804 228.585 355.804Z" fill="white"/>
<path fill-rule="evenodd" clip-rule="evenodd" d="M307.774 133.699C294.647 132 277.864 132 256.636 132H255.37C234.141 132 217.353 132 204.225 133.699C190.75 135.444 179.823 139.114 171.174 147.441C162.48 155.812 158.606 166.46 156.774 179.584C155 192.286 155 208.497 155 228.881V325.739C155 338.398 154.999 348.917 156.216 356.821C157.475 364.999 160.409 372.958 168.5 377.277C175.717 381.127 183.654 380.344 190.384 378.302C197.191 376.238 204.11 372.49 210.444 368.49C216.84 364.451 223.133 359.831 228.585 355.804C233.919 351.864 238.841 348.228 242.113 346.259C246.725 343.484 249.638 341.745 251.998 340.633C254.176 339.607 255.235 339.444 256 339.444C256.765 339.444 257.824 339.607 260.002 340.633C262.364 341.745 265.275 343.484 269.887 346.259C273.16 348.229 278.085 351.867 283.421 355.808C288.874 359.835 295.16 364.451 301.556 368.49C307.891 372.49 314.81 376.238 321.617 378.302C328.346 380.344 336.284 381.127 343.499 377.277C351.591 372.958 354.525 364.999 355.785 356.821C357 348.925 357 338.418 357 325.773V228.887C357 208.5 357 192.287 355.227 179.584C353.394 166.46 349.52 155.812 340.826 147.441C332.177 139.114 321.251 135.444 307.774 133.699Z" fill="white"/>
<defs>
<linearGradient id="paint0_linear_90_25" x1="256" y1="0" x2="256" y2="512" gradientUnits="userSpaceOnUse">
<stop stop-color="#2C2C2B"/>
<stop offset="1" stop-color="#181817"/>
</linearGradient>
</defs>
</svg>
