<svg width="512" height="512" viewBox="0 0 512 512" fill="none" xmlns="http://www.w3.org/2000/svg">
<path d="M0 256C0 158.687 20.4522 87.04 53.76 53.76C87.0678 20.48 158.753 0 256 0C353.355 0 424.96 20.4172 458.24 53.76C491.52 87.1028 512 158.795 512 256C512 353.323 491.556 424.96 458.24 458.24C424.924 491.52 353.237 512 256 512C158.796 512 87.1038 491.52 53.76 458.24C20.4162 424.96 0 353.356 0 256Z" fill="url(#paint0_linear_93_64)"/>
<mask id="mask0_93_64" style="mask-type:alpha" maskUnits="userSpaceOnUse" x="0" y="0" width="512" height="512">
<path d="M0 256C0 158.687 20.4522 87.04 53.76 53.76C87.0678 20.48 158.753 0 256 0C353.355 0 424.96 20.4172 458.24 53.76C491.52 87.1028 512 158.795 512 256C512 353.323 491.556 424.96 458.24 458.24C424.924 491.52 353.237 512 256 512C158.796 512 87.1038 491.52 53.76 458.24C20.4162 424.96 0 353.356 0 256Z" fill="url(#paint1_linear_93_64)"/>
</mask>
<g mask="url(#mask0_93_64)">
<path d="M0 0H256V256H0V0Z" fill="#3C3835"/>
<path d="M0 256H256V512H0V256Z" fill="#302F2B"/>
<path d="M256 0H512V256H256V0Z" fill="#302F2B"/>
<path d="M256 256H512V512H256V256Z" fill="#3C3835"/>
</g>
<path d="M327.267 320.968C277.628 283.071 283.143 250.335 282.432 236.813H312.677C316.236 230.23 318.015 224.181 318.015 216.53L283.677 193.935C295.597 185.217 303.426 171.34 303.426 155.505C303.426 135.578 291.149 118.498 273.714 111.381C268.198 109.246 229.234 236.813 229.234 236.813C229.056 239.838 229.056 243.574 229.056 248.2C229.056 260.832 260.192 259.053 258.591 270.083C256.1 286.808 255.566 299.618 241.155 339.827C231.369 367.048 166.43 339.827 161.804 353.171C158.779 362.422 157 372.92 157 384.128C157 385.374 159.669 403.343 255.922 403.343C352.175 403.343 354.844 385.374 354.844 384.128C354.844 356.729 344.702 334.312 327.267 320.968Z" fill="#5D9948"/>
<path d="M254.144 338.048C259.481 313.673 264.285 287.697 267.132 272.219C270.69 252.826 241.334 249.267 229.236 247.488C228.702 264.034 224.076 290.9 184.578 320.968C173.903 329.152 166.075 340.717 161.449 354.594C172.124 359.754 186.358 362.956 208.241 362.956C222.297 362.956 248.273 364.735 254.144 338.048ZM274.782 236.813C279.408 224.715 278.874 216.53 278.874 216.53L259.481 193.935C280.12 185.039 292.574 168.493 292.574 149.278C292.574 133.799 285.279 120.099 273.893 111.559C268.377 109.247 262.328 108.001 255.923 108.001C229.591 107.823 208.241 129.173 208.241 155.327C208.241 171.162 216.07 185.217 227.99 193.757L193.652 216.53C193.652 224.181 195.431 230.23 198.99 236.813H274.782Z" fill="#81B64C"/>
<path d="M253.254 117.431C280.653 121.701 240.622 153.548 227.99 152.124C215.892 150.701 227.456 113.516 253.254 117.431Z" fill="#B2E068"/>
<defs>
<linearGradient id="paint0_linear_93_64" x1="256" y1="0" x2="256" y2="512" gradientUnits="userSpaceOnUse">
<stop stop-color="#2C2C2B"/>
<stop offset="1" stop-color="#181817"/>
</linearGradient>
<linearGradient id="paint1_linear_93_64" x1="256" y1="0" x2="256" y2="512" gradientUnits="userSpaceOnUse">
<stop stop-color="#2C2C2B"/>
<stop offset="1" stop-color="#181817"/>
</linearGradient>
</defs>
</svg>
