<svg width="512" height="512" viewBox="0 0 512 512" fill="none" xmlns="http://www.w3.org/2000/svg">
<path d="M0 256C0 158.687 20.4522 87.04 53.76 53.76C87.0678 20.48 158.753 0 256 0C353.355 0 424.96 20.4172 458.24 53.76C491.52 87.1028 512 158.795 512 256C512 353.323 491.556 424.96 458.24 458.24C424.924 491.52 353.237 512 256 512C158.796 512 87.1038 491.52 53.76 458.24C20.4162 424.96 0 353.356 0 256Z" fill="#50C800"/>
<mask id="mask0_93_51" style="mask-type:alpha" maskUnits="userSpaceOnUse" x="0" y="0" width="512" height="512">
<path d="M0 256C0 158.687 20.4522 87.04 53.76 53.76C87.0678 20.48 158.753 0 256 0C353.355 0 424.96 20.4172 458.24 53.76C491.52 87.1028 512 158.795 512 256C512 353.323 491.556 424.96 458.24 458.24C424.924 491.52 353.237 512 256 512C158.796 512 87.1038 491.52 53.76 458.24C20.4162 424.96 0 353.356 0 256Z" fill="#50C800"/>
</mask>
<g mask="url(#mask0_93_51)">
<path fill-rule="evenodd" clip-rule="evenodd" d="M512 357.643V209.269C506.214 195.197 497.722 182.398 487.005 171.598C487.957 155.668 484.399 139.538 476.135 125.161C470.724 115.744 457.65 114.391 450.337 122.506L433.757 140.89C433.656 140.841 433.556 140.841 433.455 140.792C435.609 124.008 432.753 106.679 424.538 91.1999C419.429 81.5811 408.359 79.8781 400.745 87.6913L321.096 168.393C320.195 169.244 319.243 170.145 318.343 171.048C318.291 171.097 318.191 171.146 318.142 171.198C283.528 202.555 229.578 203.858 196.615 175.055C194.55 172.798 192.394 170.625 190.152 168.543L110.358 87.7426C102.741 79.9273 91.6717 81.6324 86.5627 91.2512C78.3966 106.679 75.4912 123.91 77.5964 140.591C77.4445 140.64 77.2948 140.64 77.145 140.691L60.7634 122.506C53.4508 114.391 40.3767 115.744 34.9168 125.161C26.8019 139.237 23.2441 155.017 23.9951 170.646C13.4421 181.062 4.96048 193.385 -1 206.963V359.996C16.9841 401.024 57.9586 429.727 105.597 429.727H110.706C157.945 429.727 198.62 401.525 216.803 361.049C234.286 360.948 246.958 360.899 254.825 360.899C271.855 360.85 285.13 360.85 294.648 360.85C312.782 401.424 353.558 429.727 400.844 429.727H404.451C452.992 429.727 494.568 399.92 512 357.643Z" fill="#8EE000"/>
<path fill-rule="evenodd" clip-rule="evenodd" d="M112.811 178.562C157.493 178.562 193.761 214.776 193.761 259.512V307.45C193.761 352.132 157.543 388.4 112.811 388.4C68.127 388.4 31.8594 352.184 31.8594 307.45V259.512C31.8594 214.778 68.127 178.562 112.811 178.562ZM397.189 178.562C441.871 178.562 478.139 214.776 478.139 259.512V307.45C478.139 352.132 441.92 388.4 397.189 388.4C352.505 388.4 316.237 352.184 316.237 307.45V259.512C316.237 214.778 352.456 178.562 397.189 178.562Z" fill="white"/>
<path fill-rule="evenodd" clip-rule="evenodd" d="M125.285 225.047C146.474 225.047 163.705 242.229 163.705 263.469V304.495C163.705 325.684 146.524 342.915 125.285 342.915C104.096 342.915 86.8633 325.733 86.8633 304.495V263.469C86.8633 242.229 104.096 225.047 125.285 225.047Z" fill="#4B4B4B"/>
<path fill-rule="evenodd" clip-rule="evenodd" d="M255.529 318.181C279.823 318.181 299.51 337.868 299.51 362.161V377.441C299.51 401.736 279.823 421.421 255.529 421.421C231.234 421.421 211.547 401.736 211.547 377.441V362.161C211.547 337.868 231.234 318.181 255.529 318.181Z" fill="#F48000"/>
<path d="M194.383 366.41C199.677 338.519 225.849 318.394 257.164 318.394C285.655 318.394 311.425 339.016 316.617 366.41V368.653C316.617 370.397 316.012 371.093 314.399 370.895L257.215 380.955H253.836L196.601 370.844C194.988 371.044 194.383 370.346 194.383 368.604V366.41Z" fill="#FFC200"/>
<path fill-rule="evenodd" clip-rule="evenodd" d="M246.226 328.131C249.182 327.432 252.211 327.071 255.252 327.056C258.493 327.056 261.786 327.449 265.027 328.279C268.223 329.086 271.055 330.912 273.076 333.468C275.098 336.025 276.195 339.168 276.195 342.403C276.196 343.674 275.942 344.933 275.446 346.108C274.95 347.282 274.223 348.35 273.306 349.248C272.389 350.147 271.3 350.86 270.101 351.346C268.903 351.832 267.619 352.082 266.322 352.081H244.682C243.385 352.082 242.101 351.832 240.903 351.346C239.704 350.86 238.615 350.147 237.698 349.248C236.781 348.35 236.054 347.282 235.558 346.108C235.063 344.933 234.808 343.674 234.809 342.403C234.758 335.659 239.496 329.745 246.226 328.131Z" fill="#FFE747"/>
<path fill-rule="evenodd" clip-rule="evenodd" d="M384.951 225.034C406.185 225.034 423.451 242.151 423.451 263.31V304.181C423.451 325.29 406.235 342.456 384.951 342.456C363.719 342.456 346.453 325.339 346.453 304.181V263.31C346.502 242.151 363.719 225.034 384.951 225.034Z" fill="#4B4B4B"/>
<path d="M93.0797 271.233C106.768 271.233 117.863 260.244 117.863 246.69C117.863 233.135 106.768 222.146 93.0797 222.146C79.3933 222.146 68.2969 233.135 68.2969 246.69C68.2969 260.244 79.3933 271.233 93.0797 271.233ZM348.619 271.233C362.306 271.233 373.402 260.244 373.402 246.69C373.402 233.135 362.306 222.146 348.619 222.146C334.931 222.146 323.836 233.135 323.836 246.69C323.836 260.244 334.931 271.233 348.619 271.233Z" fill="white"/>
</g>
</svg>
