<svg width="512" height="512" viewBox="0 0 512 512" fill="none" xmlns="http://www.w3.org/2000/svg">
<path d="M0 256C0 158.687 20.4522 87.04 53.76 53.76C87.0678 20.48 158.753 0 256 0C353.355 0 424.96 20.4172 458.24 53.76C491.52 87.1028 512 158.795 512 256C512 353.323 491.556 424.96 458.24 458.24C424.924 491.52 353.237 512 256 512C158.796 512 87.1038 491.52 53.76 458.24C20.4162 424.96 0 353.356 0 256Z" fill="url(#paint0_linear_89_34)"/>
<g clip-path="url(#clip0_89_34)">
<path d="M255.5 255.5C255.5 226.506 279.112 203 308.239 203C337.366 203 360.979 226.506 360.979 255.5C360.979 284.495 337.366 308 308.239 308C279.112 308 255.5 284.495 255.5 255.5Z" fill="#1ABCFE"/>
<path d="M150.021 360.5C150.021 331.506 173.634 308 202.761 308H255.5V360.5C255.5 389.495 231.888 413 202.761 413C173.634 413 150.021 389.495 150.021 360.5Z" fill="#0ACF83"/>
<path d="M255.5 98.001V203H308.239C337.367 203 360.979 179.495 360.979 150.5C360.979 121.505 337.367 98.001 308.239 98.001H255.5Z" fill="#FF7262"/>
<path d="M150.02 150.5C150.02 179.495 173.632 203 202.759 203H255.498V98H202.759C173.632 98 150.02 121.506 150.02 150.5Z" fill="#F24E1E"/>
<path d="M150.021 255.5C150.021 284.495 173.634 308 202.761 308H255.5V203H202.761C173.634 203 150.021 226.506 150.021 255.5Z" fill="#A259FF"/>
</g>
<defs>
<linearGradient id="paint0_linear_89_34" x1="256" y1="0" x2="256" y2="512" gradientUnits="userSpaceOnUse">
<stop stop-color="#2C2C2B"/>
<stop offset="1" stop-color="#181817"/>
</linearGradient>
<clipPath id="clip0_89_34">
<rect width="211" height="315" fill="white" transform="translate(150 98)"/>
</clipPath>
</defs>
</svg>
