<svg width="512" height="512" viewBox="0 0 512 512" fill="none" xmlns="http://www.w3.org/2000/svg">
<rect width="512" height="512" rx="256" fill="black" fill-opacity="0.01"/>
<path d="M0 256C0 158.687 20.4522 87.04 53.76 53.76C87.0678 20.48 158.753 0 256 0C353.355 0 424.96 20.4172 458.24 53.76C491.52 87.1028 512 158.795 512 256C512 353.323 491.556 424.96 458.24 458.24C424.924 491.52 353.237 512 256 512C158.796 512 87.1038 491.52 53.76 458.24C20.4162 424.96 0 353.356 0 256Z" fill="url(#paint0_linear_90_77)"/>
<path d="M209 405.825C222.615 411.34 237.081 414.417 251.747 414.919C271.473 415.629 291.087 411.647 309 403.296C288.379 395.126 269.451 383.156 253.185 368C242.745 384.837 227.301 398.135 209 405.825Z" fill="#FF9100"/>
<path d="M253 368.252C215.996 334.074 193.547 284.605 195.444 230.346C195.506 228.585 195.599 226.825 195.709 225.064C179.274 220.809 162.003 220.989 145.661 225.586C135.467 243.399 129.775 263.426 129.079 283.932C127.163 338.742 160.375 386.633 208.528 406C226.912 398.325 242.453 385.134 253 368.252Z" fill="#FFC400"/>
<path d="M253.343 368C262.046 354.268 267.326 338.169 267.94 320.825C269.555 275.2 238.442 235.951 195.379 225C195.27 226.758 195.175 228.516 195.113 230.275C193.194 284.463 215.904 333.867 253.343 368Z" fill="#FF9100"/>
<path d="M262.895 96C238.686 115.468 219.567 141.138 207.998 170.71C201.221 188.043 197.173 206.33 196 224.914C238.51 235.921 269.225 275.369 267.629 321.227C267.059 338.028 262.09 354.382 253.221 368.642C269.568 383.83 288.597 395.821 309.328 404C351.372 384.494 381.202 342.519 382.93 292.872C384.048 260.705 371.735 232.036 354.335 207.838C335.961 182.247 262.895 96 262.895 96Z" fill="#DD2C00"/>
<defs>
<linearGradient id="paint0_linear_90_77" x1="256" y1="0" x2="256" y2="512" gradientUnits="userSpaceOnUse">
<stop stop-color="#2C2C2B"/>
<stop offset="1" stop-color="#181817"/>
</linearGradient>
</defs>
</svg>
