<svg width="512" height="512" viewBox="0 0 512 512" fill="none" xmlns="http://www.w3.org/2000/svg">
<path d="M0 256C0 158.687 20.4522 87.04 53.76 53.76C87.0678 20.48 158.753 0 256 0C353.355 0 424.96 20.4172 458.24 53.76C491.52 87.1028 512 158.795 512 256C512 353.323 491.556 424.96 458.24 458.24C424.924 491.52 353.237 512 256 512C158.796 512 87.1038 491.52 53.76 458.24C20.4162 424.96 0 353.356 0 256Z" fill="#1B1F23"/>
<path fill-rule="evenodd" clip-rule="evenodd" d="M256 110C173.125 110 106 176.988 106 259.693C106 325.932 148.937 381.88 208.562 401.714C216.062 403.024 218.875 398.533 218.875 394.604C218.875 391.048 218.688 379.26 218.688 366.723C181 373.647 171.25 357.555 168.25 349.134C166.562 344.831 159.25 331.545 152.875 327.99C147.625 325.184 140.125 318.26 152.688 318.073C164.5 317.886 172.938 328.926 175.75 333.417C189.25 356.058 210.813 349.696 219.438 345.766C220.75 336.036 224.687 329.487 229 325.745C195.625 322.003 160.75 309.092 160.75 251.834C160.75 235.555 166.563 222.083 176.125 211.604C174.625 207.862 169.375 192.518 177.625 171.935C177.625 171.935 190.188 168.006 218.875 187.279C230.875 183.911 243.625 182.227 256.375 182.227C269.125 182.227 281.875 183.911 293.875 187.279C322.563 167.819 335.125 171.935 335.125 171.935C343.375 192.518 338.125 207.862 336.625 211.604C346.188 222.083 352 235.368 352 251.834C352 309.279 316.938 322.003 283.563 325.745C289 330.423 293.688 339.404 293.688 353.438C293.688 373.46 293.5 389.551 293.5 394.604C293.5 398.533 296.313 403.211 303.813 401.714C363.063 381.88 406 325.745 406 259.693C406 176.988 338.875 110 256 110Z" fill="white"/>
</svg>
