<svg width="512" height="512" viewBox="0 0 512 512" fill="none" xmlns="http://www.w3.org/2000/svg">
<path d="M0 256C0 158.687 20.4522 87.04 53.76 53.76C87.0678 20.48 158.753 0 256 0C353.355 0 424.96 20.4172 458.24 53.76C491.52 87.1028 512 158.795 512 256C512 353.323 491.556 424.96 458.24 458.24C424.924 491.52 353.237 512 256 512C158.796 512 87.1038 491.52 53.76 458.24C20.4162 424.96 0 353.356 0 256Z" fill="#F1243D"/>
<path fill-rule="evenodd" clip-rule="evenodd" d="M331.966 120.049C330.998 120.138 322.398 121.662 321.364 121.873L202.331 145.891L202.286 145.902C199.182 146.559 196.746 147.66 194.866 149.24C192.597 151.142 191.34 153.834 190.861 156.971C190.761 157.639 190.594 158.996 190.594 160.999C190.594 160.999 190.594 282.613 190.594 309.979C190.594 313.461 190.316 316.843 187.958 319.724C185.599 322.606 182.685 323.473 179.269 324.163C176.677 324.686 174.085 325.209 171.493 325.732C161.659 327.712 155.262 329.058 149.467 331.305C143.927 333.452 139.777 336.189 136.473 339.66C129.921 346.523 127.262 355.835 128.174 364.556C128.953 371.999 132.301 379.118 138.053 384.38C141.935 387.94 146.786 390.644 152.504 391.789C158.433 392.98 164.752 392.568 173.985 390.699C178.902 389.709 183.508 388.163 187.891 385.571C192.23 383.012 195.945 379.597 198.849 375.436C201.763 371.265 203.643 366.626 204.678 361.697C205.746 356.613 206.002 352.019 206.002 346.946V217.734C206.002 210.814 207.96 208.99 213.544 207.633C213.544 207.633 312.486 187.675 317.103 186.774C323.544 185.539 326.581 187.375 326.581 194.128V282.335C326.581 285.828 326.548 289.365 324.167 292.258C321.809 295.139 318.894 296.007 315.479 296.696C312.887 297.219 310.295 297.742 307.703 298.265C297.869 300.245 291.472 301.591 285.676 303.838C280.136 305.985 275.987 308.722 272.683 312.193C266.13 319.057 263.238 328.368 264.15 337.09C264.929 344.532 268.511 351.652 274.262 356.914C278.145 360.474 282.995 363.099 288.713 364.256C294.643 365.446 300.961 365.024 310.195 363.166C315.112 362.176 319.717 360.696 324.1 358.104C328.439 355.545 332.155 352.13 335.058 347.97C337.973 343.798 339.853 339.159 340.887 334.231C341.955 329.147 342 324.552 342 319.48V130.573C342.022 123.72 338.407 119.493 331.966 120.049Z" fill="white"/>
</svg>
