<svg width="512" height="512" viewBox="0 0 512 512" fill="none" xmlns="http://www.w3.org/2000/svg">
<path d="M0 256C0 158.687 20.4522 87.04 53.76 53.76C87.0678 20.48 158.753 0 256 0C353.355 0 424.96 20.4172 458.24 53.76C491.52 87.1028 512 158.795 512 256C512 353.323 491.556 424.96 458.24 458.24C424.924 491.52 353.237 512 256 512C158.796 512 87.1038 491.52 53.76 458.24C20.4162 424.96 0 353.356 0 256Z" fill="#F4B400"/>
<path d="M154 319.267H255.814H154ZM154 192H357.628H154Z" fill="white"/>
<path d="M154 319.267H255.814M154 192H357.628" stroke="white" stroke-width="38.1802" stroke-linecap="round"/>
</svg>
