<svg width="512" height="512" viewBox="0 0 512 512" fill="none" xmlns="http://www.w3.org/2000/svg">
<path d="M0 256C0 158.687 20.4522 87.04 53.76 53.76C87.0678 20.48 158.753 0 256 0C353.355 0 424.96 20.4172 458.24 53.76C491.52 87.1028 512 158.795 512 256C512 353.323 491.556 424.96 458.24 458.24C424.924 491.52 353.237 512 256 512C158.796 512 87.1038 491.52 53.76 458.24C20.4162 424.96 0 353.356 0 256Z" fill="url(#paint0_linear_90_35)"/>
<mask id="mask0_90_35" style="mask-type:alpha" maskUnits="userSpaceOnUse" x="0" y="0" width="512" height="512">
<path d="M0 256C0 158.687 20.4522 87.04 53.76 53.76C87.0678 20.48 158.753 0 256 0C353.355 0 424.96 20.4172 458.24 53.76C491.52 87.1028 512 158.795 512 256C512 353.323 491.556 424.96 458.24 458.24C424.924 491.52 353.237 512 256 512C158.796 512 87.1038 491.52 53.76 458.24C20.4162 424.96 0 353.356 0 256Z" fill="#D9D9D9"/>
</mask>
<g mask="url(#mask0_90_35)">
<path d="M83.9402 511.715L83 298.721H83.4577V296.954C83.4577 183.606 173.317 92 284.454 92C363.831 92 428 157.44 428 238.396C428 319.327 363.831 384.785 284.454 384.785C236.774 384.785 198.326 345.55 198.326 296.979C198.326 248.414 236.805 209.148 284.454 209.148C300.343 209.148 313.163 222.216 313.163 238.42C313.163 254.576 300.318 267.699 284.454 267.699C268.559 267.699 255.745 280.774 255.745 296.979C255.745 313.134 268.559 326.258 284.454 326.258C332.072 326.258 370.582 286.992 370.582 238.42C370.582 189.855 332.072 150.589 284.454 150.589C205.045 150.589 140.907 216.022 140.907 296.979V298.491H141.05L141.99 512C141.989 512 83.9393 511.715 83.9402 511.715Z" fill="white"/>
<path d="M83.9402 511.715L83 298.721H83.4577V296.954C83.4577 183.606 173.317 92 284.454 92C363.831 92 428 157.44 428 238.396C428 319.327 363.831 384.785 284.454 384.785C236.774 384.785 198.326 345.55 198.326 296.979C198.326 248.414 236.805 209.148 284.454 209.148C300.343 209.148 313.163 222.216 313.163 238.42C313.163 254.576 300.318 267.699 284.454 267.699C268.559 267.699 255.745 280.774 255.745 296.979C255.745 313.134 268.559 326.258 284.454 326.258C332.072 326.258 370.582 286.992 370.582 238.42C370.582 189.855 332.072 150.589 284.454 150.589C205.045 150.589 140.907 216.022 140.907 296.979V298.491H141.05L141.99 512C141.989 512 83.9393 511.715 83.9402 511.715Z" fill="white"/>
</g>
<defs>
<linearGradient id="paint0_linear_90_35" x1="256" y1="0" x2="256" y2="512" gradientUnits="userSpaceOnUse">
<stop stop-color="#18A497"/>
<stop offset="1" stop-color="#1AAFA1"/>
</linearGradient>
</defs>
</svg>
