<svg width="512" height="512" viewBox="0 0 512 512" fill="none" xmlns="http://www.w3.org/2000/svg">
<path d="M0 256C0 158.687 20.4522 87.04 53.76 53.76C87.0678 20.48 158.753 0 256 0C353.355 0 424.96 20.4172 458.24 53.76C491.52 87.1028 512 158.795 512 256C512 353.323 491.556 424.96 458.24 458.24C424.924 491.52 353.237 512 256 512C158.796 512 87.1038 491.52 53.76 458.24C20.4162 424.96 0 353.356 0 256Z" fill="#BA4949"/>
<circle cx="256" cy="256" r="150" fill="white"/>
<path d="M171.314 247.186L182.686 235.814C188.02 230.48 190.686 227.814 194 227.814C197.314 227.814 199.98 230.48 205.314 235.814L239 269.5L316.686 191.814C322.02 186.48 324.686 183.814 328 183.814C331.314 183.814 333.98 186.48 339.314 191.814L350.686 203.186C356.02 208.52 358.686 211.186 358.686 214.5C358.686 217.814 356.02 220.48 350.686 225.814L250.314 326.186C244.98 331.52 242.314 334.186 239 334.186C235.686 334.186 233.02 331.52 227.686 326.186L171.314 269.814C165.98 264.48 163.314 261.814 163.314 258.5C163.314 255.186 165.98 252.52 171.314 247.186Z" fill="#BA4949" stroke="#BA4949"/>
</svg>
