<svg width="512" height="512" viewBox="0 0 512 512" fill="none" xmlns="http://www.w3.org/2000/svg">
<path d="M0 256C0 158.687 20.4522 87.04 53.76 53.76C87.0678 20.48 158.753 0 256 0C353.355 0 424.96 20.4172 458.24 53.76C491.52 87.1028 512 158.795 512 256C512 353.323 491.556 424.96 458.24 458.24C424.924 491.52 353.237 512 256 512C158.796 512 87.1038 491.52 53.76 458.24C20.4162 424.96 0 353.356 0 256Z" fill="#1D7D84"/>
<path d="M166.888 303.759C174.159 298.977 181.258 295.697 198.626 289.097C209.545 283.441 225.2 285.292 233.295 274.993C234.099 273.754 229.736 265.13 225.342 259.272C221.145 253.676 213.59 246.074 205.468 239.275C197.368 232.494 197.923 232.802 195.964 233.989C190.17 237.499 183.48 243.081 170.102 255.563C154.856 269.79 151.268 272.84 144.195 277.585C140.8 279.863 133.97 283.507 130.954 284.65C129.483 285.207 129.046 285.675 127.932 287.882C122.355 298.929 119.608 311.169 120.938 319.043C121.884 324.641 125.755 330.612 129.182 331.762C129.971 332.026 132.008 332.192 133.707 332.129C147.543 327.513 155.323 311.391 166.888 303.759ZM201.567 274.049C199.418 272.123 197.344 270.368 196.959 270.15C196.137 269.683 195.48 270.292 192.611 274.182C190.447 277.115 189.825 277.292 187.37 275.672C184.986 274.098 179.768 268.87 179.768 268.055C179.768 267.314 183.552 260.496 184.508 259.513C185.214 258.788 186.61 259.651 191.7 263.957C193.616 265.578 195.451 266.852 195.779 266.789C196.107 266.726 197.478 265.055 198.826 263.076C200.811 260.161 201.472 259.478 202.307 259.478C203.069 259.478 204.56 260.683 208.005 264.082C210.572 266.615 212.672 268.942 212.672 269.255C212.672 270.212 209.355 275.468 208.066 276.553C207.398 277.115 206.541 277.57 206.162 277.563C205.784 277.556 203.716 275.974 201.567 274.049ZM336.629 321.893C338.633 320.843 340.993 319.153 342.538 317.659C345.02 315.262 345.111 315.101 345.111 313.119C345.111 307.837 342.132 303.415 338.059 301.313C334.97 299.718 328.584 299.785 327.663 302.14C326.398 305.853 327.043 311.51 329.437 317.687C330.896 321.451 332.14 323.641 332.82 323.641C333.079 323.641 334.793 322.854 336.629 321.893ZM217.636 356.281C236.271 350.318 252.614 343.123 264.225 332.661C267.501 329.592 267.837 329.14 267.626 328.083C267.145 325.677 263.619 317.341 258.527 306.572C250.256 289.076 250.361 289.356 250.914 286.418C251.734 282.061 253.147 278.809 254.219 278.809C254.825 278.809 269.02 294.767 269.02 295.448C269.02 296.374 266.866 296.261 264.842 295.228C263.745 294.668 263.025 294.512 262.761 294.775C262.086 295.451 263.444 299.231 266.796 306.003C272.184 316.89 273.541 322.81 272.152 329.361C270.922 335.161 268.384 339.49 262.881 345.177C246.936 358.611 236.398 366.035 216.298 373.703C216.298 373.703 217.713 382.276 220.045 387.007C223.609 394.237 230.886 393.31 237.497 390.195C253.291 381.253 255.342 371.953 267.819 358.628C276.709 349.224 284.332 342.585 302.945 334.869C314.415 330.115 325.369 328.38 325.367 327.472C325.366 327.062 324.917 324.597 324.371 321.996C322.29 312.089 321.993 304.049 323.496 298.346C325.126 292.165 328.928 287.002 332.675 285.879C334.857 285.225 338.656 285.259 340.303 285.948C341.038 286.255 342.475 287.436 343.498 288.574C348.686 294.344 351.362 304.307 349.864 312.279C348.485 319.621 345.555 325.179 340.028 330.941L336.773 334.334L337.907 335.971C341.849 341.668 357.351 341.491 372.931 334.459C373.073 333.895 372.408 325.632 371.453 316.096C369.693 298.516 369.349 295.62 363.854 252.075C356.603 194.612 355.263 183.999 353.324 168.695C352.2 159.822 351.281 151.027 351.281 151.027L354.744 143.199C357.236 151.545 366.584 171.871 366.584 171.871C366.584 171.871 365.013 171.038 364.075 170.02C363.137 169.002 361.931 168.169 361.931 168.169C361.931 168.169 361.576 169.159 361.744 171.151C361.882 172.791 362.269 177.464 362.605 181.536C364.25 201.491 364.593 204.494 376.6 304.104C378.537 320.168 378.519 319.902 378.052 325.903C377.227 336.495 375.002 342.703 370.368 347.342C365.916 351.799 358.725 354.539 351.281 354.614C346.443 354.663 343.298 353.843 340.236 351.734C337.617 349.93 334.112 345.669 331.744 341.409C330.839 339.782 329.864 338.449 329.576 338.449C328.838 338.448 315.964 341.35 309.6 344.162C299.675 348.547 286.918 357.262 283.09 359.823C277.732 363.406 270.964 370.085 261.966 380.665C249.912 394.84 243.836 400.605 239.256 402.215C236.54 403.17 232.773 403.231 229.578 402.371C226.312 401.493 223.521 399.843 220.499 397.002C215.991 392.766 213.524 387.589 212.085 379.349C211.738 377.357 211.61 374.86 211.61 374.86C211.61 374.86 208.137 375.498 204.857 375.949C196.216 377.139 185.48 377.146 179.974 375.966C169.513 373.724 162.022 367.428 157.999 357.497C155.847 352.183 154.771 346.274 154.397 337.728C154.22 333.676 153.993 331.867 153.661 331.867C153.154 331.867 152.227 332.55 147.162 336.654C142.973 340.048 141.289 340.653 136.645 340.431C131.541 340.187 128.479 338.678 124.16 334.276C113.951 323.87 113.912 310.816 124.02 286.914C124.383 286.056 124.584 285.199 124.466 285.009C124.349 284.819 122.857 284.001 121.15 283.19C113.507 279.56 108.245 273.632 106.675 266.881C104.047 252.416 109.506 241.79 115.857 228.969C115.142 241.718 106.11 258.267 113.431 268.991C115.912 272.672 123.45 272.912 128.517 271.743C131.501 271.055 139.749 266.049 146.68 260.719C164.511 246.172 169.249 242.282 185.258 227.479C186.803 226.054 187.98 224.664 187.875 224.388C187.712 223.965 136.577 184.776 134.879 183.772L132.658 181.948L132.718 176.189C132.781 170.172 133.457 166.515 135.399 161.686L136.269 159.522L143.109 155.664C176.806 136.656 219.089 120.854 266.478 109.557C270.155 108.68 275.112 108.86 277.246 109.947C280.9 111.808 282.347 114.16 282.329 118.21C282.29 126.996 275.195 138.848 260.177 155.213C256.611 159.099 251.985 164.355 248.94 167.981L247.574 169.608L247.791 167.963C247.911 167.058 248.849 164.652 249.876 162.616C252.791 156.835 254.355 154.894 269.542 138.2C274.503 132.747 276.424 129.844 276.424 127.801C276.424 125.598 275.566 123.726 273.922 122.343L272.541 121.181L265.537 121.388C245.6 123.069 236.507 128.915 219.119 134.072C213.441 135.741 182.097 146.874 169.074 152.454C157.428 157.445 137.815 167.566 137.815 168.587C137.815 169.076 137.513 168.863 179.151 197.798C184.806 201.728 192.559 207.142 196.379 209.829C200.199 212.516 203.573 214.81 203.878 214.927C204.183 215.044 205.777 214.585 207.421 213.906C214.982 210.784 221.855 209.303 228.791 209.3C231.21 209.3 233.287 209.14 233.407 208.946C233.696 208.478 232.197 202.379 229.196 191.819C223.094 170.347 222.289 160.548 225.924 152.025C226.759 150.069 227.456 149.622 228.171 150.586C229.14 151.893 237.884 170.24 237.65 170.474C237.504 170.62 236.633 170.439 235.714 170.071C232.736 168.88 232.67 168.946 232.987 172.796C233.383 177.606 235.09 185.733 236.767 190.791C240.463 201.937 245.482 208.803 254.702 215.322C257.722 217.458 257.886 217.656 258.358 219.765C259.041 222.817 258.677 230.101 257.798 230.98C257.204 231.574 256.964 231.478 255.058 229.883C247.602 223.64 237.623 220.44 228.082 221.233C223.913 221.58 218.43 223.057 218.43 223.833C218.43 224.117 220.602 226.099 223.255 228.238C237.125 239.416 253.71 253.471 264.832 263.472C271.992 269.909 278.313 274.285 280.453 274.285C281.34 274.285 281.393 274.158 281.182 272.537C281.057 271.575 280.757 268.568 280.515 265.853C279.814 257.996 278.205 243.984 276.195 228.219C275.17 220.188 273.873 210.009 273.312 205.597C271.927 194.706 270.428 181.486 269.801 174.637L269.283 168.971C269.842 168.043 272.517 163.233 272.517 163.233L285.151 191.277C285.151 191.277 283.665 190.659 282.243 189.509C280.822 188.359 279.543 187.534 279.401 187.676C279.026 188.051 281.534 209.555 285.049 236.102C286.449 246.681 288.686 265.157 289.198 270.377C289.759 276.104 290.046 276.552 293.401 276.952C297.566 277.449 304.701 274.817 309.259 271.102C310.239 270.303 311.224 269.25 311.446 268.761C311.953 267.65 310.333 253.092 306.615 225.34C305.145 214.368 303.773 204.096 303.565 202.513C303.358 200.929 302.357 193.433 301.341 185.855C300.325 178.277 299.214 169.948 298.872 167.346C296.51 149.395 295.528 142.51 294.072 133.674C292.028 121.276 291.97 120.009 291.97 120.009C291.97 120.009 294.775 110.998 295.136 110.998C296.312 110.998 309.24 138.81 309.24 138.81L302.307 135.265C302.307 135.265 302.372 147.052 309.954 202.63C314.999 239.61 317.552 259.535 317.547 261.892C317.533 268.898 315.052 275.86 311.139 279.868C307.554 283.542 301.75 286.94 295.755 288.874C294.511 289.276 292.107 289.105 291.883 289.311C291.634 289.542 293.2 307.511 293.174 315.642C293.137 327.228 291.753 364.881 290.986 369.197C290.065 374.378 287.424 383.357 286.853 383.357C286.669 383.357 286.405 379.331 286.266 374.411C286.021 365.726 286.608 309.828 285.265 297.379C284.373 289.124 284.616 289.747 281.878 288.67C274.741 285.86 268.407 281.284 257.95 271.381C239.543 253.951 234.025 249.139 225.258 242.878C223.471 241.602 221.852 240.558 221.659 240.558C220.853 240.558 221.448 241.608 223.717 244.192C228.04 249.114 230.754 253.024 233.041 257.627C235.907 263.391 236.939 267.391 236.939 272.727C236.939 283.171 233.966 287.502 222.543 293.7C217.892 296.223 213.337 298.041 203.303 301.378C185.732 307.221 179.083 310.017 172.204 314.459C166.467 318.163 160.275 323.96 158.575 327.218C157.354 329.559 158.116 338.77 160.025 344.733C163.213 354.695 171.878 359.104 182.956 361.891C193.27 363.748 201.251 361.722 212.837 358.304C214.946 352.17 222.016 340.228 224.389 334.634C223.299 341.441 218.892 350.983 217.636 356.281ZM214.963 325.172C212.735 322.934 211.398 321.264 211.398 320.72C211.398 319.614 214.336 315.191 216.002 313.789C216.812 313.107 217.511 312.824 217.934 313.006C223.129 316.266 224.945 319.043 227.85 321.975C227.85 323.184 225.587 326.036 222.458 330.276C220.4 330.348 219.137 329.365 214.963 325.172ZM118.126 224.988L117.516 223.192C116.466 220.1 116.013 215.521 116.447 212.377C117.518 204.618 119.531 201.366 127.452 190.681C129.266 189.062 134.31 183.164 133.46 185.657C133.388 185.764 130.491 190.351 130.42 190.459C127.263 195.221 124.632 200.512 123.884 203.62C123.237 206.309 123.305 209.997 124.047 212.496C125.305 216.734 126.889 216.967 130.273 213.412C131.565 212.055 132.958 210.944 133.368 210.944C134.27 210.944 134.276 211.07 133.502 213.676C130.65 219.922 122.196 231.975 118.126 224.988ZM199.272 395.848C196.584 394.699 195.587 389.737 196.821 383.65C197.566 379.97 198.047 378.756 198.759 378.756C199.076 378.756 199.129 379.895 198.934 382.56C198.633 386.683 199.011 388.566 200.462 390.169C201.543 391.365 202.427 391.339 203.611 390.079C205.333 388.247 205.862 389.991 204.482 392.945C203.023 396.067 201.618 396.851 199.272 395.848ZM316.958 381.775C314.606 375.948 311.964 373.305 307.386 372.2C306.084 371.885 305.446 371.428 304.761 370.319C303.551 368.362 303.298 365.803 304.12 363.837C304.734 362.366 304.853 362.289 306.117 362.557C309.233 363.216 312.679 366.543 315.79 371.895C317.375 374.622 318.719 376.398 318.791 375.861C318.803 375.777 319.061 373.158 319.366 370.041C319.974 363.812 321.228 360.235 323.102 359.381C325.158 358.444 328.024 359.916 329.414 362.622C330.072 363.903 329.992 364.55 329.024 365.78C328.078 366.984 327.51 366.86 325.217 364.953C323.82 363.791 322.834 363.727 321.919 364.738C321.371 365.344 321.237 366.402 321.23 370.188C321.218 377.405 319.908 384.551 318.597 384.551C318.312 384.551 317.575 383.302 316.958 381.775ZM256.929 251.425C256.929 251.425 260.477 247.897 263.184 245.931C260.972 245.514 257.729 240.991 258.048 239.605C258.429 238.086 261.355 235.085 263.436 234.077C265.933 232.869 266.92 233.403 266.92 235.961C266.92 237.189 266.19 238.095 266.19 238.095C266.19 238.095 266.432 237.19 265.896 236.705C264.099 236.091 260.484 238.166 261.136 239.977C261.624 241.263 263.519 242.309 265.359 242.309C266.106 242.309 267.993 241.944 269.551 241.499C271.11 241.053 272.986 240.149 272.986 240.149C273.171 240.89 273.332 242.466 273.308 242.908C268.993 246.949 258.735 252.278 258.735 252.278L256.929 251.425ZM393.483 313.091C393.348 312.446 392.678 303.999 391.994 294.319C390.533 273.634 389.925 267.286 388.266 255.365C387.589 250.501 386.483 242.543 385.807 237.679C385.132 232.815 384.223 226.337 383.789 223.283C383.354 220.229 382.33 212.919 381.513 207.037C378.86 187.935 378.082 185.156 378.082 185.156L380.689 173.241C386.03 182.156 395.592 202.211 395.592 202.211L387.887 197.729C387.887 197.729 390.176 218.805 392.431 233.679C396.942 263.435 398.237 276.584 398.237 292.605C398.236 303.399 398.034 304.823 395.693 310.501C394.17 314.192 393.803 314.622 393.483 313.091ZM345.523 269.517C343.374 267.596 341.305 265.847 340.926 265.632C340.36 265.31 339.711 265.905 337.317 268.94C335.712 270.975 334.247 272.64 334.061 272.64C332.506 272.64 323.724 264.921 323.724 263.555C323.724 262.619 328.44 254.969 329.022 254.961C329.909 254.949 332.156 256.472 335.795 259.551C337.634 261.107 339.41 262.327 339.741 262.264C340.333 262.149 341.562 260.657 344.177 256.874C344.975 255.721 345.82 254.954 346.292 254.954C347.321 254.954 350.019 257.235 353.933 261.416L357.095 264.793L355.352 267.726C353.268 271.235 351.539 273.058 350.324 273.03C349.802 273.018 347.803 271.555 345.523 269.517ZM338.376 252.434C338.235 251.727 338.119 249.819 338.119 248.193C333.021 220.197 331.207 187.685 322.886 137.893C322.216 134.249 321.667 129.608 321.667 129.608L325.583 120.465L338.238 150.072L332.438 146.492C336.896 180.708 339.161 198.546 341.373 215.559C342.724 224.87 342.972 235.13 342.021 242.383C341.401 247.111 339.626 253.72 338.975 253.72C338.787 253.72 338.518 253.141 338.376 252.434ZM400.943 249.458C398.746 247.422 398.374 246.126 398.387 240.558C398.398 235.736 398.887 232.302 400.29 227.191C400.952 224.778 401.369 226.365 400.974 229.797C400.135 237.088 400.109 238.713 400.796 241.074C401.169 242.358 401.918 243.924 402.461 244.554L403.447 245.699L404.457 244.752C405.342 243.922 405.5 243.888 405.726 244.477C406.267 245.887 405.976 248.273 405.131 249.346C404.049 250.722 402.355 250.767 400.943 249.458ZM315.572 180.907C312.868 179.258 311.629 173.936 312.56 167.963C313.095 164.534 314.169 160.765 314.613 160.765C314.787 160.765 314.767 162.2 314.567 163.953C313.939 169.483 314.628 173.381 316.639 175.675C317.591 176.761 318.688 176.548 319.419 175.135C320.193 173.638 320.997 173.74 321.187 175.361C321.409 177.261 320.88 179.168 319.763 180.496C318.538 181.952 317.46 182.058 315.572 180.907ZM154.263 234.144C151.745 232.808 150.789 229.35 151.408 223.817C152.037 218.199 154.51 209.97 155.571 209.97C156.104 209.97 155.686 214.111 154.812 217.485C153.821 221.306 153.898 224.667 155.029 227.003C156.132 229.281 156.667 229.582 158.367 228.877C160.096 228.161 160.579 228.729 160.016 230.818C159.242 233.693 156.452 235.306 154.263 234.144ZM202.371 183.39C200.97 181.609 200.135 178.371 200.152 174.793C200.17 171.129 201.198 166.038 202.159 164.85C202.72 164.157 202.748 164.402 202.45 167.372C201.85 173.357 200.606 175.211 202.974 177.729C203.709 178.51 205.305 179.409 206.172 178.087C207.13 176.625 208.074 176.723 208.074 178.285C208.074 179.98 207.188 181.949 205.813 183.31C204.39 184.72 203.434 184.742 202.371 183.39Z" fill="white"/>
</svg>
