<svg width="512" height="512" viewBox="0 0 512 512" fill="none" xmlns="http://www.w3.org/2000/svg">
<path d="M0 256C0 158.687 20.4522 87.04 53.76 53.76C87.0678 20.48 158.753 0 256 0C353.355 0 424.96 20.4172 458.24 53.76C491.52 87.1028 512 158.795 512 256C512 353.323 491.556 424.96 458.24 458.24C424.924 491.52 353.237 512 256 512C158.796 512 87.1038 491.52 53.76 458.24C20.4162 424.96 0 353.356 0 256Z" fill="url(#paint0_linear_90_298)"/>
<path fill-rule="evenodd" clip-rule="evenodd" d="M332.905 155.954C375.382 197.227 375.382 264.135 332.905 305.408C331.482 306.788 330.035 308.127 328.562 309.415L255.999 375.997L183.435 309.415C181.962 308.127 180.507 306.788 179.084 305.408C136.615 264.143 136.615 197.227 179.084 155.954C221.562 114.682 290.436 114.682 332.905 155.954Z" fill="#0B7ED0"/>
<path d="M176.516 217.032C197.596 217.032 217.813 225.406 232.719 240.312C247.625 255.218 255.999 275.435 255.999 296.515V375.998H176.516C155.436 375.998 135.219 367.624 120.313 352.718C105.407 337.812 97.0332 317.595 97.0332 296.515C97.0332 275.435 105.407 255.218 120.313 240.312C135.219 225.406 155.436 217.032 176.516 217.032V217.032Z" fill="#2CD4ED"/>
<mask id="mask0_90_298" style="mask-type:luminance" maskUnits="userSpaceOnUse" x="97" y="217" width="159" height="159">
<path d="M176.516 217.032C197.596 217.032 217.813 225.406 232.719 240.312C247.625 255.218 255.999 275.435 255.999 296.515V375.998H176.516C155.436 375.998 135.219 367.624 120.313 352.718C105.407 337.812 97.0332 317.595 97.0332 296.515C97.0332 275.435 105.407 255.218 120.313 240.312C135.219 225.406 155.436 217.032 176.516 217.032V217.032Z" fill="white"/>
</mask>
<g mask="url(#mask0_90_298)">
<path fill-rule="evenodd" clip-rule="evenodd" d="M332.905 155.947C375.382 197.219 375.382 264.136 332.905 305.408C331.482 306.789 330.035 308.119 328.562 309.407L255.999 375.997L183.435 309.407C181.962 308.119 180.507 306.789 179.084 305.408C136.615 264.136 136.615 197.228 179.084 155.947C221.562 114.674 290.436 114.674 332.905 155.947Z" fill="#0DB4E2"/>
</g>
<path d="M256 375.998V296.515L256.033 294.256C256.478 278.638 261.515 263.498 270.515 250.727C279.516 237.956 292.081 228.121 306.64 222.451C321.199 216.781 337.106 215.527 352.374 218.847C367.641 222.167 381.591 229.913 392.481 241.117C403.371 252.321 410.717 266.486 413.601 281.842C416.486 297.197 414.78 313.062 408.699 327.454C402.617 341.846 392.429 354.126 379.407 362.76C366.385 371.394 351.107 375.999 335.483 375.998H256Z" fill="#3169FF"/>
<mask id="mask1_90_298" style="mask-type:luminance" maskUnits="userSpaceOnUse" x="256" y="217" width="159" height="159">
<path d="M256 375.998V296.515L256.033 294.256C256.478 278.638 261.515 263.498 270.515 250.727C279.516 237.956 292.081 228.121 306.64 222.451C321.199 216.781 337.106 215.527 352.374 218.847C367.641 222.167 381.591 229.913 392.481 241.117C403.371 252.321 410.717 266.486 413.601 281.842C416.486 297.197 414.78 313.062 408.699 327.454C402.617 341.846 392.429 354.126 379.407 362.76C366.385 371.394 351.107 375.999 335.483 375.998H256Z" fill="white"/>
</mask>
<g mask="url(#mask1_90_298)">
<path fill-rule="evenodd" clip-rule="evenodd" d="M332.905 155.947C375.382 197.219 375.382 264.136 332.905 305.408C331.482 306.789 330.035 308.119 328.562 309.407L255.999 375.997L183.435 309.407C181.962 308.119 180.507 306.789 179.084 305.408C136.615 264.136 136.615 197.228 179.084 155.947C221.562 114.674 290.436 114.674 332.905 155.947Z" fill="#3153FF"/>
</g>
<defs>
<linearGradient id="paint0_linear_90_298" x1="256" y1="0" x2="256" y2="512" gradientUnits="userSpaceOnUse">
<stop stop-color="#2C2C2B"/>
<stop offset="1" stop-color="#181817"/>
</linearGradient>
</defs>
</svg>
