<svg width="512" height="512" viewBox="0 0 512 512" fill="none" xmlns="http://www.w3.org/2000/svg">
<path d="M0 256C0 158.687 20.4522 87.04 53.76 53.76C87.0678 20.48 158.753 0 256 0C353.355 0 424.96 20.4172 458.24 53.76C491.52 87.1028 512 158.795 512 256C512 353.323 491.556 424.96 458.24 458.24C424.924 491.52 353.237 512 256 512C158.796 512 87.1038 491.52 53.76 458.24C20.4162 424.96 0 353.356 0 256Z" fill="#34A853"/>
<path d="M119 152V359H393V152H119ZM239.042 325.227H152.775V272.316H239.042V325.227ZM239.042 238.684H152.775V185.773H239.042V238.684ZM359.225 325.227H272.958V272.316H359.225V325.227ZM359.225 238.684H272.958V185.773H359.225V238.684Z" fill="white"/>
</svg>
