<svg width="512" height="512" viewBox="0 0 512 512" fill="none" xmlns="http://www.w3.org/2000/svg">
<path d="M0 256C0 158.687 20.4522 87.04 53.76 53.76C87.0678 20.48 158.753 0 256 0C353.355 0 424.96 20.4172 458.24 53.76C491.52 87.1028 512 158.795 512 256C512 353.323 491.556 424.96 458.24 458.24C424.924 491.52 353.237 512 256 512C158.796 512 87.1038 491.52 53.76 458.24C20.4162 424.96 0 353.356 0 256Z" fill="#00A16F"/>
<path d="M202.887 115L228.834 164.38C257.074 218.123 218.551 282.928 158.364 282.928H106V223.159H158.364C173.968 223.159 183.956 206.357 176.634 192.424L150.686 143.044L202.887 115Z" fill="white"/>
<path d="M304.672 115L278.724 164.38C250.484 218.123 289.007 282.928 349.195 282.928H401.558V223.159H349.195C333.59 223.159 323.603 206.357 330.924 192.424L356.872 143.044L304.672 115Z" fill="white"/>
<path d="M252.298 342.959L207.156 408.999L158.529 375.015L203.672 308.976C227.173 274.594 277.423 274.594 300.924 308.976L346.067 375.015L297.441 408.999L252.298 342.959Z" fill="white"/>
</svg>
