<svg width="512" height="512" viewBox="0 0 512 512" fill="none" xmlns="http://www.w3.org/2000/svg">
<path d="M0 256C0 158.687 20.4522 87.04 53.76 53.76C87.0678 20.48 158.753 0 256 0C353.355 0 424.96 20.4172 458.24 53.76C491.52 87.1028 512 158.795 512 256C512 353.323 491.556 424.96 458.24 458.24C424.924 491.52 353.237 512 256 512C158.796 512 87.1038 491.52 53.76 458.24C20.4162 424.96 0 353.356 0 256Z" fill="#1B1F23"/>
<path d="M123.125 371.264L124.166 374.256C124.036 373.931 123.645 372.89 123.125 371.264ZM165.339 303.032C167.226 286.836 173.6 277.794 185.568 268.493C202.74 255.939 224.14 263.029 224.14 263.029V220.815C229.344 220.685 234.547 221.01 239.686 221.79V276.103C239.686 276.103 218.286 269.013 201.114 281.567C189.146 290.868 182.771 299.91 180.885 316.106C180.82 324.887 182.381 336.4 189.666 346.287C187.845 345.311 186.024 344.205 184.137 342.97C168.201 331.782 165.274 314.935 165.339 303.032ZM328.212 142.761C316.439 129.296 311.951 115.637 310.325 106.075H325.155C325.155 106.075 322.228 131.183 343.758 155.835L344.083 156.16C338.229 152.387 332.896 147.834 328.212 142.761ZM399.697 181.007V234.214C399.697 234.214 380.769 233.434 366.719 229.726C347.14 224.522 334.587 216.522 334.587 216.522C334.587 216.522 325.871 210.798 325.22 210.408V320.334C325.22 326.448 323.594 341.734 318.716 354.483C312.341 371.134 302.454 382.127 300.633 384.338C300.633 384.338 288.6 399.169 267.46 409.121C248.402 418.097 231.62 417.902 226.612 418.097C226.612 418.097 197.667 419.268 171.584 401.64C165.925 397.738 160.656 393.315 155.843 388.436L155.973 388.566C182.056 406.259 211.001 405.023 211.001 405.023C216.009 404.828 232.791 405.023 251.849 396.046C272.989 386.095 285.022 371.264 285.022 371.264C286.844 369.053 296.73 358.06 303.105 341.409C307.983 328.66 309.609 313.374 309.609 307.26V197.399C310.325 197.789 318.976 203.513 318.976 203.513C318.976 203.513 331.53 211.513 351.108 216.717C365.158 220.425 384.086 221.205 384.086 221.205V179.511C390.591 181.007 396.119 181.397 399.697 181.007Z" fill="#EE1D52"/>
<path d="M384.084 179.446V221.14C384.084 221.14 365.156 220.359 351.106 216.652C331.527 211.448 318.974 203.448 318.974 203.448C318.974 203.448 310.258 197.724 309.607 197.334V307.26C309.607 313.374 307.981 328.66 303.103 341.408C296.728 358.06 286.841 369.053 285.02 371.264C285.02 371.264 272.987 386.095 251.847 396.046C232.789 405.023 216.007 404.828 210.999 405.023C210.999 405.023 182.054 406.193 155.971 388.566L155.841 388.436C153.109 385.639 150.507 382.712 148.1 379.655C139.774 369.053 134.701 356.564 133.4 352.987V352.921C131.319 346.742 127.026 331.782 127.611 317.407C128.652 291.974 137.238 276.298 139.514 272.396C145.498 261.728 153.369 252.167 162.605 244.166C170.801 237.271 180.102 231.742 190.054 227.905C200.852 223.352 212.43 220.945 224.138 220.75V262.964C224.138 262.964 202.738 255.874 185.566 268.428C173.598 277.729 167.223 286.771 165.337 302.967C165.272 314.87 168.199 331.717 184.2 342.97C186.087 344.205 187.908 345.311 189.729 346.287C192.526 350.059 195.908 353.377 199.811 356.109C215.487 366.451 228.561 367.166 245.343 360.467C256.53 355.979 264.921 345.897 268.824 334.644C271.296 327.619 271.231 320.594 271.231 313.309V106.075H310.258C311.884 115.637 316.307 129.296 328.145 142.761C332.893 147.834 338.227 152.387 344.016 156.16C345.707 158.046 354.488 167.153 365.806 172.812C371.595 175.739 377.775 177.95 384.084 179.446Z" fill="white"/>
<path d="M117.855 340.106L118.831 342.903C118.701 342.578 118.311 341.602 117.855 340.106Z" fill="#69C9D0"/>
<path d="M190.055 227.97C180.038 231.808 170.801 237.337 162.606 244.232C153.304 252.232 145.499 261.859 139.515 272.526C137.238 276.429 128.652 292.04 127.611 317.537C127.026 331.977 131.384 346.873 133.4 353.052V353.117C134.701 356.63 139.775 369.183 148.101 379.786C150.507 382.843 153.109 385.77 155.841 388.567C146.995 382.452 139.189 375.102 132.49 366.712C124.229 356.239 119.155 343.816 117.855 340.173V340.043C115.773 333.864 111.415 318.903 112.066 304.463C113.106 279.031 121.692 263.355 123.969 259.452C129.953 248.785 137.758 239.158 147.06 231.157C155.255 224.263 164.557 218.734 174.509 214.896C180.753 212.294 187.258 210.408 193.892 209.172C203.909 207.416 214.121 207.286 224.203 208.717V220.815C212.43 221.01 200.852 223.417 190.055 227.97Z" fill="#69C9D0"/>
<path d="M310.324 106.074H271.296V313.308C271.296 320.593 271.296 327.618 268.89 334.643C264.922 345.83 256.531 355.978 245.409 360.466C228.627 367.23 215.488 366.45 199.877 356.108C195.974 353.441 192.592 350.123 189.795 346.351C203.129 353.441 215.032 353.311 229.798 347.392C240.985 342.903 249.376 332.756 253.279 321.569C255.751 314.544 255.686 307.519 255.686 300.234V93H309.608C309.543 93 308.958 98.1386 310.324 106.074ZM384.085 167.932V179.445C377.775 177.949 371.596 175.737 365.807 172.81C354.554 167.217 345.773 158.045 344.017 156.159C346.033 157.46 348.05 158.631 350.196 159.736C363.986 166.566 377.45 168.647 384.085 167.932Z" fill="#69C9D0"/>
</svg>
