<svg width="512" height="512" viewBox="0 0 512 512" fill="none" xmlns="http://www.w3.org/2000/svg">
<path d="M0 256C0 158.687 20.4522 87.04 53.76 53.76C87.0678 20.48 158.753 0 256 0C353.355 0 424.96 20.4172 458.24 53.76C491.52 87.1028 512 158.795 512 256C512 353.323 491.556 424.96 458.24 458.24C424.924 491.52 353.237 512 256 512C158.796 512 87.1038 491.52 53.76 458.24C20.4162 424.96 0 353.356 0 256Z" fill="url(#paint0_linear_93_91)"/>
<path fill-rule="evenodd" clip-rule="evenodd" d="M306.572 220.173C306.572 237.942 292.21 252.346 274.493 252.346C256.776 252.346 242.413 237.942 242.413 220.173C242.413 202.404 256.776 188 274.493 188C292.21 188 306.572 202.404 306.572 220.173ZM226.563 190.271H99V254.616H162.404V350H226.563V190.271ZM339.029 190.271H413L346.2 350H272.228L339.029 190.271Z" fill="white"/>
<defs>
<linearGradient id="paint0_linear_93_91" x1="256" y1="0" x2="256" y2="512" gradientUnits="userSpaceOnUse">
<stop stop-color="#131722"/>
<stop offset="1" stop-color="#232838"/>
</linearGradient>
</defs>
</svg>
