<svg width="512" height="512" viewBox="0 0 512 512" fill="none" xmlns="http://www.w3.org/2000/svg">
<path d="M0 256C0 158.687 20.4522 87.04 53.76 53.76C87.0678 20.48 158.753 0 256 0C353.355 0 424.96 20.4172 458.24 53.76C491.52 87.1028 512 158.795 512 256C512 353.323 491.556 424.96 458.24 458.24C424.924 491.52 353.237 512 256 512C158.796 512 87.1038 491.52 53.76 458.24C20.4162 424.96 0 353.356 0 256Z" fill="#F6D400"/>
<path d="M83.3156 234.374L84.9161 247.819L72.1556 241.427L74.5694 257.423L58.3716 252.697L82.0266 284.9L82.6281 269.555L95.9436 275.255L93.9314 260.106L106.832 264.958L83.3156 234.374Z" fill="black"/>
<path d="M404.161 168.244L412.225 179.12L397.975 179.907L408.013 192.594L391.606 196.534L428.128 212.742L421.031 199.123L435.42 197.46L426.152 185.309L439.758 183.116L404.161 168.244Z" fill="black"/>
<mask id="mask0_90_80" style="mask-type:luminance" maskUnits="userSpaceOnUse" x="241" y="320" width="106" height="107">
<path d="M241.529 326.748L340.813 320.647L346.914 419.93L247.631 426.031L241.529 326.748Z" fill="white"/>
</mask>
<g mask="url(#mask0_90_80)">
<path d="M293.402 371.296C279.363 376.954 287.229 394.099 287.229 394.099L314.24 381.177C314.24 381.177 306.53 366.005 293.402 371.296Z" fill="black"/>
<path d="M294.167 352.962L274.971 377.911C274.971 377.911 285.849 386.397 295.672 375.841C306.984 363.685 294.167 352.962 294.167 352.962Z" fill="black"/>
</g>
<path d="M269.681 98.7864L264.064 92.3258C260.493 94.4804 255.943 94.2133 252.652 91.6691L246.191 97.2865C248.346 100.858 248.079 105.408 245.535 108.698L251.152 115.159C254.723 113.004 259.274 113.272 262.564 115.816L269.025 110.198C266.87 106.628 267.137 102.077 269.681 98.7864Z" fill="black"/>
<path d="M190.913 391.891C157.098 371.987 136.808 345.123 138.335 310.957C141.756 234.391 322.36 245.443 336.142 283.13C345.645 309.113 303.463 323.844 255.618 314.159C199.204 302.738 174.481 274.847 174.494 227.322C174.507 179.797 232.835 179.181 268.967 193.765C297.874 205.433 284.799 234.324 268.956 234.319C245.665 234.313 176.541 164.461 260.739 143.701C299.408 134.167 348.141 159.151 348.132 193.787" stroke="black" stroke-width="16.1879" stroke-linecap="round"/>
</svg>
